<?xml version="1.0" encoding="utf-8"?>
<!-- Generator: Adobe Illustrator 28.3.0, SVG Export Plug-In . SVG Version: 6.00 Build 0)  -->
<svg version="1.1" id="Layer_1" xmlns="http://www.w3.org/2000/svg" xmlns:xlink="http://www.w3.org/1999/xlink" x="0px" y="0px"
	 viewBox="0 0 500 500" style="enable-background:new 0 0 500 500;" xml:space="preserve">
<style type="text/css">
	.st0{fill:#333333;}
	.st1{clip-path:url(#SVGID_00000106855128393304915380000004063942771198400394_);}
	.st2{fill:#008080;}
</style>
<g>
	<g>
		<g>
			<path class="st0" d="M219,40.3c43.5-13.1,95.6-8,135.9,10.3c34.5,15.7,59.3,46.6,69.5,83.1c0.5,1.7,1,3.4,1.6,5.2
				c8.5-37.8-13.5-77.6-45.3-99.8c-65-45.6-170.1-57.1-234-2.8c-21.8,18.6-35.4,44.5-38.1,73c-2.2,23,3.8,46.1,17.5,64.8
				c22.2,30.4,61,50.8,96.2,62.1c44.2,14.2,92.7,29.1,132.7,52.8c31.7,18.7,51.7,47,56.9,83.4c9.9-21.1-1.3-57.4-11.7-76.7
				c-15.5-28.8-41.8-45.7-70.1-60.3c-33.3-17.1-69.3-28.2-103.1-44.4c-0.4-0.2-0.9-0.4-1.3-0.6c-38-18.3-75.6-55.6-61.5-101.4
				C172.4,62.8,194.1,47.8,219,40.3"/>
		</g>
	</g>
	<g>
		<defs>
			<rect id="SVGID_1_" x="72.2" y="127.1" width="320" height="372.9"/>
		</defs>
		<clipPath id="SVGID_00000076575359865236464030000000780434239950899883_">
			<use xlink:href="#SVGID_1_"  style="overflow:visible;"/>
		</clipPath>
		<g style="clip-path:url(#SVGID_00000076575359865236464030000000780434239950899883_);">
			<path class="st2" d="M281,459.7c-43.5,13.1-95.6,8-135.9-10.3c-34.5-15.7-59.3-46.6-69.5-83.1c-0.5-1.7-1-3.4-1.6-5.2
				c-8.5,37.8,13.5,77.6,45.3,99.8c65,45.6,170.1,57.1,234,2.8c21.8-18.6,35.4-44.5,38.1-73c2.2-23-3.8-46.1-17.5-64.8
				c-22.2-30.4-61-50.8-96.2-62.1c-44.2-14.2-92.7-29.1-132.7-52.8c-31.7-18.7-51.7-47-56.9-83.4c-9.9,21.1,1.3,57.4,11.7,76.7
				c15.5,28.8,41.8,45.8,70.1,60.3c33.3,17.1,69.3,28.2,103.1,44.4c0.4,0.2,0.9,0.4,1.3,0.6c38,18.3,75.6,55.6,61.5,101.4
				C327.6,437.2,305.9,452.2,281,459.7"/>
		</g>
	</g>
</g>
</svg>
